<svg xmlns="http://www.w3.org/2000/svg" width="47" height="53" viewBox="0 0 47 53">
<g>
<path d="M 9.80 40.80 C8.24,42.36 6.04,42.34 5.54,40.75 C4.39,37.09 3.72,31.42 3.32,21.93 C2.93,12.59 3.11,11.09 4.81,8.99 C6.70,6.66 7.05,6.61 20.99,6.83 C36.17,7.07 39.12,7.78 38.50,11.01 C37.89,14.15 37.06,15.00 34.56,15.00 C33.29,15.00 31.75,15.60 31.14,16.33 C30.38,17.24 28.36,17.54 24.77,17.25 C17.30,16.67 15.77,18.09 15.19,26.12 C14.84,30.85 14.24,32.84 12.86,33.81 C11.84,34.53 11.00,36.12 11.00,37.36 C11.00,38.59 10.46,40.14 9.80,40.80 Z" fill="rgb(50,89,228)"/>
<path d="M 9.80 40.80 C10.46,40.14 11.00,38.59 11.00,37.36 C11.00,36.12 11.84,34.53 12.86,33.81 C14.06,32.97 14.67,31.37 15.03,27.89 C15.02,29.39 15.13,30.90 15.39,32.27 C15.97,35.38 16.43,35.75 20.76,36.62 C23.71,37.21 26.34,37.22 27.72,36.64 C29.76,35.78 29.90,35.21 29.42,29.60 C28.69,21.14 28.50,18.36 27.09,17.45 C27.04,17.41 26.99,17.38 26.94,17.36 C29.20,17.38 30.55,17.04 31.14,16.33 C31.75,15.60 33.29,15.00 34.56,15.00 C37.06,15.00 37.89,14.15 38.50,11.01 C39.12,7.78 36.17,7.07 20.99,6.83 C17.37,6.77 14.67,6.73 12.61,6.75 C14.38,6.72 16.46,6.75 18.92,6.80 C19.59,6.81 20.27,6.82 20.99,6.83 C42.00,7.17 42.14,7.29 41.83,26.00 C41.71,33.42 41.43,40.05 41.21,40.73 C40.98,41.41 39.33,42.87 37.53,43.98 C34.73,45.71 32.65,45.99 22.88,45.91 C10.54,45.82 6.19,44.98 4.25,42.33 C3.38,41.14 3.00,36.11 3.00,25.92 C3.00,25.15 3.00,24.41 3.00,23.69 C2.99,19.84 2.99,16.84 3.16,14.53 C3.12,16.25 3.18,18.59 3.32,21.93 C3.72,31.42 4.39,37.09 5.54,40.75 C6.04,42.34 8.24,42.36 9.80,40.80 ZM 21.45 17.15 C19.80,17.37 18.27,17.81 17.59,18.31 C16.70,18.96 15.99,20.68 15.54,22.84 C16.21,18.73 17.67,17.31 21.45,17.15 ZM 5.39 8.31 C5.20,8.51 5.01,8.73 4.81,8.99 C4.55,9.30 4.33,9.61 4.14,9.93 C4.40,9.38 4.72,8.92 5.12,8.54 C5.21,8.46 5.29,8.38 5.39,8.31 Z" fill="rgb(66,79,227)"/>
<path d="M 21.45 17.15 C22.40,17.11 23.50,17.15 24.77,17.25 C25.57,17.32 26.29,17.35 26.94,17.36 C26.99,17.38 27.04,17.41 27.09,17.45 C28.50,18.36 28.69,21.14 29.42,29.60 C29.90,35.21 29.76,35.78 27.72,36.64 C26.34,37.22 23.71,37.21 20.76,36.62 C16.43,35.75 15.97,35.38 15.39,32.27 C15.13,30.90 15.02,29.39 15.03,27.89 C15.09,27.34 15.14,26.75 15.19,26.12 C15.28,24.87 15.39,23.79 15.54,22.84 C15.99,20.68 16.70,18.96 17.59,18.31 C18.27,17.81 19.80,17.37 21.45,17.15 ZM 17.00 19.00 L 17.00 35.00 L 23.00 35.00 C28.33,35.00 29.00,34.78 29.00,33.00 C29.00,31.44 28.33,31.00 26.00,31.00 C24.35,31.00 23.00,30.55 23.00,30.00 C23.00,29.45 24.12,29.00 25.50,29.00 C27.33,29.00 28.00,28.47 28.00,27.00 C28.00,25.50 27.31,24.98 25.25,24.93 C22.85,24.87 22.75,24.76 24.50,24.05 C25.60,23.61 26.84,23.45 27.25,23.68 C27.66,23.92 28.00,22.97 28.00,21.56 C28.00,19.12 27.73,19.00 22.50,19.00 Z" fill="rgb(74,91,196)"/>
<path d="M 0.00 26.50 L 0.00 0.00 L 23.50 0.00 L 47.00 0.00 L 47.00 26.50 L 47.00 53.00 L 23.50 53.00 L 0.00 53.00 L 0.00 26.50 ZM 37.53 43.98 C39.33,42.87 40.98,41.41 41.21,40.73 C41.43,40.05 41.71,33.42 41.83,26.00 C42.14,7.29 42.00,7.17 20.99,6.83 C2.26,6.53 3.00,5.74 3.00,25.92 C3.00,36.11 3.38,41.14 4.25,42.33 C6.19,44.98 10.54,45.82 22.88,45.91 C32.65,45.99 34.73,45.71 37.53,43.98 ZM 17.00 27.00 L 17.00 19.00 L 22.50 19.00 C27.73,19.00 28.00,19.12 28.00,21.56 C28.00,22.97 27.66,23.92 27.25,23.68 C26.84,23.45 25.60,23.61 24.50,24.05 C22.75,24.76 22.85,24.87 25.25,24.93 C27.31,24.98 28.00,25.50 28.00,27.00 C28.00,28.47 27.33,29.00 25.50,29.00 C24.12,29.00 23.00,29.45 23.00,30.00 C23.00,30.55 24.35,31.00 26.00,31.00 C28.33,31.00 29.00,31.44 29.00,33.00 C29.00,34.78 28.33,35.00 23.00,35.00 L 17.00 35.00 L 17.00 27.00 Z" fill="rgb(248,252,252)"/>
</g>
</svg>